<svg xmlns="http://www.w3.org/2000/svg" viewBox="0 0 240 140" fill="none">
  <rect x="1" y="1" width="238" height="138" rx="22" fill="#141E2D" stroke="#33466A"/>
  <circle cx="54" cy="35" r="18" fill="#1D2A4D"/>
  <circle cx="190" cy="104" r="22" fill="#162E2D"/>
  <path d="M66 83c15-22 30-33 51-33 24 0 39 11 57 32" stroke="#40516A" stroke-width="2" stroke-linecap="round" stroke-dasharray="4 7"/>
  <rect x="38" y="59" width="62" height="43" rx="7" fill="#192638" stroke="#8EA5FF" stroke-width="2"/>
  <rect x="140" y="54" width="62" height="43" rx="7" fill="#192638" stroke="#7F91A9" stroke-width="2"/>
  <path d="M58 111h22M69 102v9M160 106h22M171 97v9" stroke="#91A2B9" stroke-width="2" stroke-linecap="round"/>
  <rect x="48" y="68" width="42" height="25" rx="4" fill="#1D2A4D"/>
  <path d="M58 80h22" stroke="#8EA5FF" stroke-width="2" stroke-linecap="round"/>
  <rect x="150" y="63" width="42" height="25" rx="4" fill="#202B3B"/>
  <path d="M161 75h20" stroke="#91A2B9" stroke-width="2" stroke-linecap="round"/>
  <circle cx="120" cy="50" r="5" fill="#8EA5FF"/>
  <circle cx="120" cy="50" r="10" stroke="#8EA5FF" stroke-opacity=".22" stroke-width="5"/>
</svg>
